<svg xmlns="http://www.w3.org/2000/svg" width="32" height="32" viewBox="0 0 32 32">
  <defs>
    <linearGradient id="beachGradient" x1="0%" y1="0%" x2="100%" y2="100%">
      <stop offset="0%" style="stop-color:#FF6B35;stop-opacity:1" />
      <stop offset="50%" style="stop-color:#F7931E;stop-opacity:1" />
      <stop offset="100%" style="stop-color:#FFD23F;stop-opacity:1" />
    </linearGradient>
    <linearGradient id="racketGradient" x1="0%" y1="0%" x2="100%" y2="100%">
      <stop offset="0%" style="stop-color:#2E86AB;stop-opacity:1" />
      <stop offset="100%" style="stop-color:#A23B72;stop-opacity:1" />
    </linearGradient>
  </defs>
  
  <!-- Background circle -->
  <circle cx="16" cy="16" r="15" fill="url(#beachGradient)" stroke="#fff" stroke-width="1"/>
  
  <!-- Beach Tennis Racket -->
  <g transform="translate(8, 4)">
    <!-- Racket handle -->
    <rect x="7" y="18" width="2" height="8" fill="url(#racketGradient)" rx="1"/>
    
    <!-- Racket head (oval) -->
    <ellipse cx="8" cy="12" rx="6" ry="8" fill="none" stroke="url(#racketGradient)" stroke-width="1.5"/>
    
    <!-- Racket strings (horizontal) -->
    <line x1="3" y1="8" x2="13" y2="8" stroke="url(#racketGradient)" stroke-width="0.5" opacity="0.7"/>
    <line x1="3" y1="10" x2="13" y2="10" stroke="url(#racketGradient)" stroke-width="0.5" opacity="0.7"/>
    <line x1="3" y1="12" x2="13" y2="12" stroke="url(#racketGradient)" stroke-width="0.5" opacity="0.7"/>
    <line x1="3" y1="14" x2="13" y2="14" stroke="url(#racketGradient)" stroke-width="0.5" opacity="0.7"/>
    <line x1="3" y1="16" x2="13" y2="16" stroke="url(#racketGradient)" stroke-width="0.5" opacity="0.7"/>
    
    <!-- Racket strings (vertical) -->
    <line x1="5" y1="5" x2="5" y2="19" stroke="url(#racketGradient)" stroke-width="0.5" opacity="0.7"/>
    <line x1="7" y1="4.5" x2="7" y2="19.5" stroke="url(#racketGradient)" stroke-width="0.5" opacity="0.7"/>
    <line x1="9" y1="4.5" x2="9" y2="19.5" stroke="url(#racketGradient)" stroke-width="0.5" opacity="0.7"/>
    <line x1="11" y1="5" x2="11" y2="19" stroke="url(#racketGradient)" stroke-width="0.5" opacity="0.7"/>
  </g>
  
  <!-- Ball -->
  <circle cx="22" cy="10" r="2.5" fill="#FFD23F" stroke="#FF6B35" stroke-width="0.5"/>
  <path d="M 20 10 Q 22 8 24 10" stroke="#FF6B35" stroke-width="0.5" fill="none"/>
  <path d="M 20 10 Q 22 12 24 10" stroke="#FF6B35" stroke-width="0.5" fill="none"/>
</svg>